<!--?xml version="1.0" encoding="utf-8" ?--><svg xmlns="http://www.w3.org/2000/svg" xmlns:xlink="http://www.w3.org/1999/xlink" width="381" height="100" viewBox="0 0 381 100"><path fill="#FEFEFE" d="M85.3771 29.0803C89.6446 29.6173 94.354 29.2074 98.6714 29.2137C102.133 29.2188 106.044 29.578 109.443 29.1522C109.772 30.5543 105.043 39.3759 104.062 40.9523C103.948 41.1342 103.829 41.313 103.705 41.4884C101.733 43.456 99.6401 48.6977 98.2828 51.3501L86.7633 73.8904C84.6514 78.0648 82.7075 82.6405 80.2044 86.5848C79.5533 87.6108 78.9059 88.5704 77.6483 88.8374C74.9878 89.4022 51.7853 89.3943 50.4152 88.4887C50.3853 88.3801 50.2664 88.0909 50.2794 87.9946C50.6954 84.9027 69.3395 56.3635 72.4631 49.9312C68.402 50.0752 55.3191 50.4266 52.0796 49.7355C51.3836 49.587 50.8567 49.2392 50.347 48.7515C48.1882 46.6862 46.5059 43.9812 44.7155 41.5886C41.653 37.4963 38.4929 33.4674 35.7147 29.1727C40.6787 28.5462 46.185 28.9993 51.1918 29.0074C62.5822 29.0257 73.9886 29.208 85.3771 29.0803Z" class="svg-elem-1"></path><path fill="#FEFEFE" d="M335.855 23.0634C339.064 22.816 342.378 23.0026 345.599 23.0303C345.826 23.3692 345.957 23.7062 345.991 24.1151C346.184 26.4328 346.052 28.8584 346.051 31.1858L346.04 44.3139C346.035 51.3097 346.48 58.4413 346.063 65.4193C346.026 66.0432 346.059 66.3924 345.653 66.875L344.476 66.9567C341.624 66.9959 338.771 66.9893 335.919 66.9371C336.151 66.4129 336.219 49.6051 335.954 48.8457C333.145 49.1602 330.208 48.9516 327.378 48.9366L314.269 48.9711C314.423 49.1993 314.571 49.4488 314.656 49.7122C315.231 51.4833 315.373 65.5568 314.643 66.9689C311.425 67.0104 308.207 67.0108 304.99 66.97C305.43 66.1311 304.653 28.3607 305.252 23.1249C308.129 22.6788 311.706 22.8733 314.611 23.1235C314.738 23.3299 314.846 23.5582 314.898 23.796C315.353 25.8798 315.186 36.1757 314.862 38.3941C314.786 38.9185 314.582 39.3716 314.3 39.816C320.544 40.1206 329.837 40.5096 335.899 39.725C335.957 39.6229 336.005 39.519 336.052 39.4114C336.06 39.3947 336.067 39.3783 336.074 39.3616C336.319 38.7939 336.135 23.7882 335.855 23.0634Z" class="svg-elem-2"></path><path fill="#FEFEFE" d="M220.467 23.1247C223.244 22.76 249.632 22.7016 250.922 23.4659C251.241 23.974 251.341 24.5304 251.391 25.1208C251.492 26.3165 251.578 30.8463 250.908 31.6383C247.761 32.6023 232.522 32.1528 228.37 32.0553C228.5 32.2454 228.618 32.4585 228.681 32.6813C229.197 34.5096 229.379 38.5332 228.441 40.2067C234.988 39.667 242.734 39.7934 249.313 40.1293C249.418 40.2902 249.514 40.4677 249.578 40.6496C249.978 41.7951 250.135 47.9396 249.649 48.9939C242.995 48.9304 236.341 48.9315 229.687 48.9972L229.145 49.1265C228.101 51.5647 229.837 55.6223 228.537 58.2616C232.046 57.8455 235.678 58.0076 239.208 57.9983C243.276 57.9876 247.399 57.8588 251.458 58.1112C251.632 58.4579 251.742 58.8517 251.805 59.2338C252.071 60.8483 252.381 65.1469 251.354 66.5188C251.156 66.7836 250.475 66.8626 250.154 66.9062C246.899 67.3478 221.564 67.4159 220.374 66.5088C219.348 63.5454 219.443 25.7991 220.467 23.1247Z" class="svg-elem-3"></path><path fill="#FEFEFE" d="M273.818 22.1248C279.446 21.6154 285.509 22.1847 290.477 25.0796C294.227 27.2885 296.956 30.8858 298.072 35.0924C298.335 36.0938 298.639 37.1513 298.094 38.0879C295.74 39.2543 291.79 38.4509 289.227 38.0881C289.231 37.6118 288.975 37.2718 288.732 36.8843C287.06 34.2208 285.095 32.5562 281.983 31.8564C277.793 30.9141 272.83 31.3854 269.172 33.7078C266.557 35.3674 264.983 37.8066 264.318 40.8102C263.466 44.6619 263.688 49.6613 265.865 53.0701C267.584 55.7619 270.281 57.4316 273.372 58.1093C277.269 58.9639 282.469 58.936 285.937 56.7093C287.036 56.0032 288.529 54.4506 288.817 53.1241C289.418 52.7877 290.059 52.1925 290.381 51.5816C292.151 51.4096 297.556 50.8557 298.877 51.8884C299.355 54.2417 297.622 58.1104 296.369 60.0603C293.751 64.1345 289.263 66.5054 284.628 67.5141C277.904 68.9773 270.382 68.0714 264.538 64.2989C259.421 61.0168 255.837 55.8169 254.592 49.8671C253.252 43.7549 254.396 37.3609 257.772 32.0923C261.597 26.2351 267.183 23.5121 273.818 22.1248Z" class="svg-elem-4"></path><path fill="#79A4F5" d="M85.3771 29.0803C86.7051 27.0503 87.8128 22.0198 90.5075 21.4222C94.1295 20.619 106.355 21.2068 110.702 21.2039C123.011 21.1959 135.398 20.7805 147.697 21.0611C148.825 21.0868 150.115 21.062 151.184 21.4498C151.389 22.4339 150.285 23.9551 149.76 24.7574C147.332 28.4663 144.44 31.9697 141.752 35.5007C140.62 36.9881 139.59 38.7358 138.294 40.0702C137.628 40.756 136.854 41.4001 135.893 41.5881C133.171 42.1206 106.351 42.0208 103.705 41.4884C103.829 41.313 103.948 41.1342 104.062 40.9523C105.043 39.3759 109.772 30.5543 109.443 29.1522C106.044 29.578 102.133 29.2188 98.6714 29.2137C94.354 29.2074 89.6446 29.6173 85.3771 29.0803Z" class="svg-elem-5"></path><path fill="#FEFEFE" d="M181.391 23.1246C185.425 22.703 209.228 22.6705 212.555 23.4162C213.518 24.6761 213.199 27.8257 213.134 29.4123C213.113 29.9101 213.167 31.1633 212.789 31.4861C211.49 32.5924 203.323 32.1892 201.335 32.0838C201.483 32.2954 201.59 32.5152 201.643 32.7687C202.136 35.142 202.387 55.075 201.55 56.3743C201.559 56.3897 201.568 56.4048 201.576 56.4205C201.589 56.4465 201.6 56.4735 201.614 56.4994C201.718 56.7018 201.824 56.8968 201.89 57.1165C202.338 58.5986 202.298 65.6905 201.641 66.9655C198.381 66.9965 195.121 66.9914 191.861 66.9503C191.868 66.9362 191.875 66.9222 191.881 66.9081C192.227 66.1693 192.185 33.3585 191.734 32.097C189.042 32.2787 183.853 32.7218 181.453 31.5301C181.264 31.3559 181.145 31.1833 181.082 30.9327C180.619 29.0871 180.392 24.7946 181.391 23.1246Z" class="svg-elem-6"></path><path fill="#79A4F5" d="M287.003 76.1249C287.706 76.0447 288.306 76.0164 289.005 76.1457C289.115 76.3026 289.212 76.4674 289.264 76.6533C289.667 78.0916 289.593 85.5155 288.915 86.7328C288.186 86.7097 287.407 86.7234 286.694 86.5713C285.975 86.4181 286.113 86.2514 285.732 85.7323C285.371 85.2422 283.88 86.3929 283.325 86.6013C282.053 87.0794 280.592 86.7287 279.298 86.4902C278.201 85.6392 277.281 85.167 276.596 83.8467C275.961 82.6214 275.84 80.5083 276.287 79.185C277.193 76.5026 280.783 76.1232 283.202 76.417C283.92 76.5042 285.073 76.8686 285.754 76.7435C286.081 76.6835 286.685 76.2824 287.003 76.1249ZM282.307 83.8559C283.256 83.5971 284.101 83.3592 284.608 82.4477C284.858 81.997 284.947 81.4703 284.801 80.9709C284.591 80.2569 284.034 79.6586 283.378 79.3226C282.634 78.9411 281.701 79.0412 280.894 79.1249C280.262 79.5131 279.651 79.8754 279.474 80.6449C279.294 81.4288 279.382 82.4284 279.834 83.1122C280.086 83.4946 280.504 83.8119 280.958 83.9041C281.317 83.977 281.979 84.0435 282.307 83.8559Z" class="svg-elem-7"></path><path fill="#79A4F5" d="M201.334 76.1247C201.754 76.0779 202.3 75.9673 202.711 76.0728C202.884 76.1171 203.063 76.167 203.149 76.3284C204.045 77.9993 203.505 84.8772 202.942 86.7192C201.648 86.7897 200.74 86.34 199.533 86.2911C196.679 86.1755 196.537 87.2747 193.326 86.0575C191.454 84.1946 190.772 82.7709 191.192 80.0846C191.287 79.4755 191.52 78.9872 191.512 78.3563L191.511 78.3113C192.392 77.7804 193.295 77.0958 194.261 76.732C196.335 75.9503 197.847 76.9363 199.793 76.757C200.192 76.7203 200.935 76.2883 201.334 76.1247ZM197.117 83.983C198.026 83.7618 198.739 83.0572 198.97 82.1509C199.201 81.2447 198.914 80.2848 198.222 79.655C197.531 79.0252 196.548 78.8284 195.668 79.1432C194.4 79.5962 193.71 80.962 194.096 82.2511C194.482 83.5402 195.81 84.3013 197.117 83.983Z" class="svg-elem-8"></path><path fill="#79A4F5" d="M314.38 76.3748C315.959 76.0615 317.839 76.1323 319.342 76.7327C320.665 77.2613 322.591 78.7377 323.153 80.1067C323.368 80.6314 323.296 80.8042 323.081 81.3144C320.697 83.0804 316.694 81.1633 314.118 82.1576L313.989 82.5739C314.205 83.062 314.517 83.4874 315.004 83.7334C316.597 84.5388 319.423 83.7482 321.044 83.2426C321.545 83.0905 321.854 83.0247 322.376 83.1805L322.528 83.7273C322.145 84.7976 321.209 85.5213 320.244 86.064C318.624 86.9759 316.566 87.2498 314.773 86.7359C313.16 86.2733 311.518 85.0667 310.701 83.5746C310.124 82.5185 309.788 81.3094 310.139 80.1257C310.736 78.1183 312.684 77.295 314.38 76.3748Z" class="svg-elem-9"></path><path fill="#79A4F5" d="M217.341 76.3746C218.331 76.165 219.468 76.1719 220.471 76.2921C222.284 76.5093 224.199 77.411 225.335 78.8853C225.842 79.5429 226.075 80.2849 225.972 81.1072C224.162 83.5376 219.35 80.7701 217.038 82.2005L217.089 82.7997C217.269 83.1368 217.472 83.4606 217.81 83.6573C219.365 84.5622 221.941 83.7701 223.557 83.3462C223.989 83.2233 224.456 83.0599 224.909 83.1073C225.306 83.1488 225.336 83.2273 225.58 83.5191C225.572 83.639 225.557 83.7574 225.518 83.8717C225.116 85.0254 223.079 86.1718 222.031 86.6687C220.737 86.8021 219.421 86.9589 218.144 86.6264C216.281 86.1415 214.268 85.0188 213.29 83.3166C212.785 82.4374 212.706 81.4308 212.982 80.4631C213.599 78.3006 215.513 77.3731 217.341 76.3746Z" class="svg-elem-10"></path><path fill="#79A4F5" d="M337.443 76.3749C338.835 76.1686 340.367 76.0889 341.744 76.4231C343.108 76.7542 345.208 77.2071 345.974 78.4722C345.997 79.116 345.861 79.257 345.532 79.7875C344.136 80.4243 342.899 79.5689 341.525 79.1711C340.388 78.8416 339.392 78.5968 338.299 79.2094C338.196 79.2673 338.156 79.545 338.123 79.6673C339.113 80.5053 342.774 79.8154 344.527 80.8794C345.187 81.2804 345.736 81.8749 345.91 82.6465C346.079 83.3941 345.924 84.1476 345.51 84.7861C344.883 85.752 343.898 86.3035 342.796 86.5394C342.444 86.8538 341.725 86.8613 341.258 86.9077C339.634 87.0688 338.159 86.9291 336.854 85.8418C336.204 85.3001 335.482 84.4809 335.409 83.5991C335.376 83.1874 335.471 83.1515 335.724 82.853C336.883 82.6417 338.518 83.5302 339.684 83.7835C340.684 84.0009 341.801 84.0515 342.692 83.4775C341.917 81.8176 336.228 82.0329 334.954 79.7069C334.738 79.3112 334.715 78.9231 334.843 78.4973C335.178 77.3889 336.496 76.8775 337.443 76.3749Z" class="svg-elem-11"></path><path fill="#79A4F5" d="M296.766 76.1249C297.459 76.0241 298.572 75.9328 299.246 76.1314C299.695 76.2636 299.745 76.3504 299.961 76.7462L299.396 78.3637L299.596 78.56C300.513 78.3337 301.068 77.2228 301.812 76.6692C302.658 76.0399 303.791 75.9597 304.801 76.125C305.839 76.2948 306.717 76.8359 307.329 77.6933C308.601 79.4778 308.635 82.7258 308.274 84.8193C308.105 85.8007 307.866 86.3704 307.068 86.9371C306.845 86.9482 306.583 86.9536 306.37 86.8758C305.383 86.5151 305.168 85.779 304.796 84.8887C304.811 84.8646 304.826 84.8408 304.84 84.8164C305.226 84.1554 305.373 81.7779 305.153 81.071C305.002 80.5871 304.624 80.1974 304.179 79.9711C302.628 79.1839 301.189 79.9166 299.671 80.426C299.689 80.4598 299.708 80.4935 299.725 80.5281C300.389 81.8924 300.194 85.5416 299.702 86.9438C299.247 86.9468 298.787 86.9529 298.333 86.9268C297.733 86.8924 297.398 86.8265 296.997 86.3841C296.721 84.6123 296.112 77.4673 296.766 76.1249Z" class="svg-elem-12"></path><path fill="#79A4F5" d="M228.185 76.3746C228.462 76.2986 228.743 76.2297 229.028 76.1903C229.677 76.1005 230.321 76.103 230.859 76.5142C231.016 77.224 230.852 77.4807 230.615 78.1556C231.47 77.9493 231.922 77.1006 232.639 76.6012C233.428 76.0514 235.036 75.9467 235.945 76.1108C236.906 76.2844 237.695 76.7788 238.244 77.5898C239.671 79.7019 239.358 84.0782 238.883 86.5165C238.314 86.6471 237.716 86.6192 237.136 86.6244C236.391 86.0304 236.236 85.234 235.85 84.376C236.178 83.7547 236.281 83.2107 236.262 82.5077C236.241 81.7232 236.121 80.3947 235.523 79.8421C235.151 79.4984 234.69 79.2933 234.184 79.3119C229.265 79.4928 232.017 85.3732 230.547 86.9734C230.341 87.0496 230.104 87.098 229.884 87.0603C229.275 86.9556 228.541 86.6245 228.166 86.1214C227.525 84.3087 227.62 78.3245 228.185 76.3746Z" class="svg-elem-13"></path><path fill="#79A4F5" d="M259.521 71.3746C259.911 71.3504 260.2 71.3487 260.554 71.5353C261.782 72.1832 261.053 74.2344 261.411 75.2867C261.703 76.1427 262.49 75.9272 263.171 76.3047C263.616 76.5514 263.696 76.8007 263.826 77.2572C263.473 78.4031 262.475 78.8373 261.82 79.7638C259.893 82.4895 263.496 83.7026 263.807 85.7613C263.843 85.9985 263.644 86.1663 263.508 86.3533L262.493 86.5059C261.636 86.5651 260.312 86.7921 259.542 86.3667C257.474 85.2244 258.347 80.9462 257.76 78.9119C257.383 78.1353 256.268 78.1774 255.982 77.1204C256.48 76.358 257.025 76.4197 257.667 75.8707C257.688 75.8525 257.709 75.8337 257.73 75.8152C258 75.0773 258.106 74.2952 258.274 73.5303C258.479 72.6036 258.686 71.9076 259.521 71.3746Z" class="svg-elem-14"></path><path fill="#79A4F5" d="M183.458 71.3734C183.853 71.2789 184.229 71.2788 184.634 71.2802C184.918 71.4934 185.213 71.6514 185.366 71.9804C185.811 72.9321 185.726 74.4778 185.381 75.4537L185.72 75.5374C186.792 75.8048 188.336 76.0273 188.948 77.0482C188.858 78.0564 187.168 79.2599 186.582 80.1652C185.911 81.2031 186.257 82.2189 186.493 83.3462C187.297 84.0133 188.407 84.7384 188.617 85.8146L188.153 86.3755C188.075 86.4161 188.01 86.4504 187.923 86.4698C186.969 86.6818 185.29 86.9846 184.432 86.4272C182.638 85.2626 183.421 81.129 182.99 79.2586C182.819 78.5177 182.054 78.5738 181.482 78.232C181.046 77.9715 181.088 77.8556 180.966 77.3747C181.245 76.5469 181.967 76.2854 182.645 75.7603C183.082 74.4711 183.745 72.7301 183.458 71.3734Z" class="svg-elem-15"></path><path fill="#79A4F5" d="M243.36 71.6241C243.66 71.5962 244.043 71.5321 244.339 71.5809C245.718 71.8082 244.988 74.0296 245.381 74.9267C245.862 76.0231 247.814 76.2064 248.564 77.3284C248.878 78.9111 246.636 79.4327 245.882 80.7222C245.423 83.5952 248.476 83.8118 249.101 86.0251L248.753 86.6254C247.269 87.0268 244.753 86.2573 243.24 85.917C243.629 84.927 242.979 80.4649 242.896 79.2241C242.244 78.6261 241.636 79.1219 241.025 78.6447C240.898 78.5456 240.85 78.2203 240.828 78.0637C240.625 76.633 242.465 76.0627 243.136 75.0983C243.599 74.4329 243.521 72.415 243.36 71.6241Z" class="svg-elem-16"></path><path fill="#79A4F5" d="M265.963 76.1247C269.145 75.6892 267.898 77.2322 269.708 77.7063C270.26 77.32 270.651 76.893 271.075 76.3727C272.502 76.204 273.883 75.9455 275.264 76.4736L275.528 77.3702C274.273 78.9766 271.885 79.5641 270.059 80.2245C268.74 82.4135 269.901 85.0663 268.897 86.7358L265.743 86.9304C266.504 85.3335 266.162 78.1448 265.963 76.1247Z" class="svg-elem-17"></path><path fill="#79A4F5" d="M331.974 76.1249C332.582 76.0515 333.003 76.0545 333.592 76.2428C333.972 76.6672 334.01 77.048 334.07 77.588C333.114 79.451 330.397 79.1288 328.825 80.3576C327.822 81.1412 328.107 85.1777 327.938 86.4953L327.511 86.7818C326.645 86.7911 325.919 86.7114 325.083 86.4849C324.842 83.9607 324.343 80.0898 325.12 77.6793C325.355 76.9526 325.675 76.5727 326.351 76.2268C326.948 76.1721 327.212 76.087 327.756 76.371L328.094 77.5065C328.993 77.5334 330.646 76.3041 331.974 76.1249Z" class="svg-elem-18"></path><path fill="#79A4F5" d="M208.602 73.9582C209.871 76.5363 208.168 81.5762 209.067 83.4795C209.422 84.232 211.39 84.0052 212.153 85.0197C212.245 85.6735 212.086 86.1131 211.855 86.7161C211.634 86.833 211.39 86.9216 211.14 86.9516C210.156 87.07 207.784 86.9399 207.023 86.2996C205.013 84.6103 206.081 74.651 205.87 71.7102C205.881 71.7291 205.892 71.7479 205.902 71.7669C206.559 72.9892 205.755 74.6357 207.054 75.3753C207.631 75.3542 208.079 75.3322 208.605 75.0595C208.718 74.6413 208.708 74.3775 208.602 73.9582Z" class="svg-elem-19"></path><path fill="#79A4F5" d="M290.843 76.1247L290.892 76.1164C291.661 75.9911 293.315 75.8257 293.956 76.2897C294.714 78.3671 294.371 83.904 294.163 86.2071L293.583 86.6879C292.754 86.4766 291.553 86.6456 290.683 86.6552C290.723 86.5708 290.753 86.4853 290.784 86.3975C291.36 84.7874 291.146 78.0194 290.843 76.1247Z" class="svg-elem-20"></path><path fill="#88CAFD" fill-opacity="0.98431373" d="M205.87 71.7102C206.458 71.2816 207.072 70.8761 207.839 71.0062C208.409 71.1031 208.566 71.3201 208.923 71.7418C209.091 72.5119 209.014 73.2684 208.602 73.9582C208.708 74.3775 208.718 74.6413 208.605 75.0595C208.079 75.3322 207.631 75.3542 207.054 75.3753C205.755 74.6357 206.559 72.9892 205.902 71.7669C205.892 71.7479 205.881 71.7291 205.87 71.7102Z" class="svg-elem-21"></path></svg>