<svg fill="none" xmlns="http://www.w3.org/2000/svg">
    <path
        d="M99.6759 16.2901C108.241 17.3679 117.693 16.5452 126.359 16.5578C133.306 16.5681 141.156 17.289 147.978 16.4344C148.638 19.2485 139.147 36.9541 137.178 40.118C136.949 40.4831 136.71 40.842 136.461 41.194C132.503 45.1431 128.303 55.6636 125.579 60.9872L102.458 106.227C98.2194 114.605 94.3179 123.789 89.294 131.706C87.9872 133.765 86.6878 135.691 84.1637 136.227C78.8239 137.36 32.2548 137.345 29.5049 135.527C29.4449 135.309 29.2063 134.729 29.2324 134.535C30.0673 128.33 67.4874 71.0494 73.7566 58.1393C65.6057 58.4283 39.3474 59.1336 32.8455 57.7465C31.4486 57.4485 30.3911 56.7504 29.3681 55.7716C25.0352 51.6264 21.6587 46.1973 18.0652 41.3951C11.9186 33.1816 5.57604 25.0953 0 16.4756C9.9631 15.2181 21.0146 16.1275 31.0636 16.1438C53.925 16.1805 76.8184 16.5464 99.6759 16.2901Z"
        fill="#FEFEFE" />
    <path
        d="M99.6763 16.2902C102.342 12.2158 104.565 2.11925 109.973 0.919829C117.243 -0.69225 141.78 0.487506 150.505 0.481686C175.21 0.465629 200.072 -0.368107 224.757 0.195077C227.021 0.246659 229.61 0.196885 231.755 0.975227C232.167 2.95039 229.951 6.00354 228.897 7.61381C224.024 15.0578 218.22 22.0894 212.825 29.1764C210.553 32.1617 208.485 35.6695 205.884 38.3477C204.548 39.7241 202.994 41.0169 201.065 41.3942C195.602 42.463 141.772 42.2627 136.462 41.1941C136.711 40.8421 136.949 40.4832 137.178 40.1181C139.147 36.9542 148.639 19.2486 147.978 16.4345C141.156 17.2891 133.307 16.5682 126.359 16.5579C117.694 16.5453 108.241 17.368 99.6763 16.2902Z"
        fill="#79A4F5" />
</svg>